<svg xmlns="http://www.w3.org/2000/svg" viewBox="0 0 693 160" preserveAspectRatio="xMidYMid meet" role="img" aria-label="Peebles"><title>Peebles</title><g transform="translate(40 25.0) scale(1.1)"><path d="M 8 88 L 8 38 L 22 36 Q 100 12 178 36 L 192 38 L 192 88 Z M 20 88 A 18 18 0 0 1 56 88 L 56 88 Z M 64 88 A 36 36 0 0 1 136 88 L 136 88 Z M 144 88 A 18 18 0 0 1 180 88 L 180 88 Z" fill="#0C5B63" fill-rule="evenodd"/></g><g fill="#0C5B63"><g transform="translate(292.097 123.739) scale(0.060040 -0.060040)"><path d="M1182.75 888.25Q1182.75 753.25 1121.25 653.375Q1059.75 553.5 949.25 499.0Q838.75 444.5 691 444.5Q594 444.5 508.875 467.0Q423.75 489.5 355.75 534.5L365.75 600Q411.25 569.25 455.875 551.5Q500.5 533.75 543.375 526.625Q586.25 519.5 624.75 519.5Q716.5 519.5 787.125 563.875Q857.75 608.25 898.375 692.375Q939 776.5 939 895.75Q939 1029.5 889.625 1127.125Q840.25 1224.75 751.125 1278.25Q662 1331.75 543.25 1331.75H450.5V131.5Q450.5 110.5 460.375 98.75Q470.25 87 491 82L579 67Q593.5 63.25 600.625 55.5Q607.75 47.75 607.75 32.75Q607.75 17.25 598.25 8.625Q588.75 0 569.75 0H103.5Q85 0 75.0 8.625Q65 17.25 65 33Q65 58.5 93.75 68.75L167.25 82.25Q188.75 88.5 198.125 100.125Q207.5 111.75 207.5 131V1267.25Q207.5 1287.75 198.25 1299.75Q189 1311.75 168.25 1317.75L92.75 1331.5Q65 1341.25 65 1367Q65 1383.25 74.875 1391.625Q84.75 1400 103.25 1400H547.75Q744 1400 886.25 1334.25Q1028.5 1268.5 1105.625 1153.125Q1182.75 1037.75 1182.75 888.25Z" fill-rule="nonzero"/></g><g transform="translate(364.866 123.739) scale(0.060040 -0.060040)"><path d="M828 541Q828 506.25 809.25 487.625Q790.5 469 754.75 469H183.25V521.5H576.25Q612 521.5 612 558Q612 689.5 563.875 758.75Q515.75 828 441.75 828Q380 828 333.875 790.5Q287.75 753 262.0 680.625Q236.25 608.25 236.25 503.25Q236.25 314.25 319.375 216.75Q402.5 119.25 536 119.25Q629 119.25 695.25 168.125Q761.5 217 782.25 294Q789.25 304.25 795.625 308.25Q802 312.25 808 312.25Q816.25 312.25 821.5 305.75Q826.75 299.25 826 285.5Q819.75 202 771.5 132.625Q723.25 63.25 642.125 21.625Q561 -20 455.75 -20Q330.25 -20 236.75 35.25Q143.25 90.5 91.625 190.625Q40 290.75 40 423.75Q40 560 91.75 666.125Q143.5 772.25 240.0 832.875Q336.5 893.5 469.25 893.5Q577.75 893.5 658.25 847.75Q738.75 802 783.375 722.25Q828 642.5 828 541Z" fill-rule="nonzero"/></g><g transform="translate(416.981 123.739) scale(0.060040 -0.060040)"><path d="M828 541Q828 506.25 809.25 487.625Q790.5 469 754.75 469H183.25V521.5H576.25Q612 521.5 612 558Q612 689.5 563.875 758.75Q515.75 828 441.75 828Q380 828 333.875 790.5Q287.75 753 262.0 680.625Q236.25 608.25 236.25 503.25Q236.25 314.25 319.375 216.75Q402.5 119.25 536 119.25Q629 119.25 695.25 168.125Q761.5 217 782.25 294Q789.25 304.25 795.625 308.25Q802 312.25 808 312.25Q816.25 312.25 821.5 305.75Q826.75 299.25 826 285.5Q819.75 202 771.5 132.625Q723.25 63.25 642.125 21.625Q561 -20 455.75 -20Q330.25 -20 236.75 35.25Q143.25 90.5 91.625 190.625Q40 290.75 40 423.75Q40 560 91.75 666.125Q143.5 772.25 240.0 832.875Q336.5 893.5 469.25 893.5Q577.75 893.5 658.25 847.75Q738.75 802 783.375 722.25Q828 642.5 828 541Z" fill-rule="nonzero"/></g><g transform="translate(469.095 123.739) scale(0.060040 -0.060040)"><path d="M316.5 1442.75V88.75L184.75 8.5Q168.5 -2 155.0 -6.25Q141.5 -10.5 131.5 -10.5Q118 -10.5 111.0 -3.0Q104 4.5 104 19.25L104.25 1305.75Q104.25 1324 98.875 1332.0Q93.5 1340 80.5 1342.75L21.25 1344.25Q9.25 1348.25 4.125 1354.75Q-1 1361.25 -1 1370.75Q-1 1381.75 5.875 1389.25Q12.75 1396.75 29.25 1402.75L229.5 1464.75Q251.75 1472.75 263.25 1475.375Q274.75 1478 284.75 1478Q300.25 1478 308.375 1468.25Q316.5 1458.5 316.5 1442.75ZM284.25 653.5 260.75 691.25Q332.25 793 413.375 843.0Q494.5 893 593 893Q698.25 893 779.375 840.25Q860.5 787.5 906.5 690.125Q952.5 592.75 952.5 458.5Q952.5 309.25 899.25 201.875Q846 94.5 753.25 37.25Q660.5 -20 541.5 -20Q438.25 -20 363.875 26.875Q289.5 73.75 243.5 155L280.75 202.75Q317 131.5 373.0 93.875Q429 56.25 498.75 56.25Q564.5 56.25 617.875 97.5Q671.25 138.75 702.75 223.25Q734.25 307.75 734.25 436.5Q734.25 558.5 705.25 639.625Q676.25 720.75 626.0 761.75Q575.75 802.75 510.5 802.75Q448 802.75 390.25 765.625Q332.5 728.5 284.25 653.5Z" fill-rule="nonzero"/></g><g transform="translate(529.135 123.739) scale(0.060040 -0.060040)"><path d="M355.5 1442.75V119Q355.5 94.75 362.5 83.375Q369.5 72 386 67.25L431.25 58.25Q443 53.25 448.5 46.0Q454 38.75 454 27.75Q454 14.75 445.75 7.375Q437.5 0 422.25 0H75Q60.5 0 52.125 7.375Q43.75 14.75 43.75 27.75Q43.75 38.5 49.75 46.0Q55.75 53.5 68 58.75L112.75 67.25Q129.5 72 136.375 83.375Q143.25 94.75 143.25 118.5V1305.75Q143.25 1324 137.875 1332.0Q132.5 1340 119.5 1342.75L60.25 1344.25Q48.25 1348.25 43.125 1354.75Q38 1361.25 38 1370.75Q38 1381.75 44.875 1389.25Q51.75 1396.75 68.25 1402.75L268.5 1464.75Q290.75 1472.75 302.25 1475.375Q313.75 1478 323.75 1478Q339.25 1478 347.375 1468.25Q355.5 1458.5 355.5 1442.75Z" fill-rule="nonzero"/></g><g transform="translate(557.895 123.739) scale(0.060040 -0.060040)"><path d="M828 541Q828 506.25 809.25 487.625Q790.5 469 754.75 469H183.25V521.5H576.25Q612 521.5 612 558Q612 689.5 563.875 758.75Q515.75 828 441.75 828Q380 828 333.875 790.5Q287.75 753 262.0 680.625Q236.25 608.25 236.25 503.25Q236.25 314.25 319.375 216.75Q402.5 119.25 536 119.25Q629 119.25 695.25 168.125Q761.5 217 782.25 294Q789.25 304.25 795.625 308.25Q802 312.25 808 312.25Q816.25 312.25 821.5 305.75Q826.75 299.25 826 285.5Q819.75 202 771.5 132.625Q723.25 63.25 642.125 21.625Q561 -20 455.75 -20Q330.25 -20 236.75 35.25Q143.25 90.5 91.625 190.625Q40 290.75 40 423.75Q40 560 91.75 666.125Q143.5 772.25 240.0 832.875Q336.5 893.5 469.25 893.5Q577.75 893.5 658.25 847.75Q738.75 802 783.375 722.25Q828 642.5 828 541Z" fill-rule="nonzero"/></g><g transform="translate(610.009 123.739) scale(0.060040 -0.060040)"><path d="M403 37.25Q470.75 37.25 509.125 72.0Q547.5 106.75 547.5 161.25Q547.5 198.25 530.875 227.375Q514.25 256.5 473.125 281.25Q432 306 358.75 328.25Q237.75 365 168.75 408.375Q99.75 451.75 71.125 507.25Q42.5 562.75 42.5 635.5Q42.5 753.5 124.25 824.0Q206 894.5 356 894.5Q415 894.5 453.5 883.125Q492 871.75 514.875 860.375Q537.75 849 549.25 849Q560.25 849 575.375 860.375Q590.5 871.75 606.5 883.125Q622.5 894.5 635.25 894.5Q646 894.5 654.625 887.875Q663.25 881.25 668.75 860.25L718.75 654Q726 629.5 723.25 613.375Q720.5 597.25 707.5 591.5Q693.5 586 679.75 591.875Q666 597.75 655.25 614.25Q612.25 697.25 567.5 746.0Q522.75 794.75 473.375 816.125Q424 837.5 366.5 837.5Q288.25 837.5 248.5 800.75Q208.75 764 208.75 707.25Q208.75 669.25 227.0 637.75Q245.25 606.25 291.5 580.0Q337.75 553.75 421.5 530.5Q524.75 502.25 589.5 461.5Q654.25 420.75 684.625 365.5Q715 310.25 715 238.25Q715 160.5 676.875 102.375Q638.75 44.25 571.125 11.625Q503.5 -21 414.75 -21Q355 -21 316.25 -6.375Q277.5 8.25 255.875 22.875Q234.25 37.5 225.75 37.5Q216.25 37.5 203.5 23.5Q190.75 9.5 176.625 -4.5Q162.5 -18.5 149.25 -18.5Q138.5 -18.5 130.5 -10.875Q122.5 -3.25 118.75 15.5L78.75 209Q73.25 238.75 75.5 253.5Q77.75 268.25 92.5 272.75Q105.5 277.25 118.0 270.375Q130.5 263.5 142 244.5Q201 131.75 265.875 84.5Q330.75 37.25 403 37.25Z" fill-rule="nonzero"/></g></g></svg>